<svg width="25" height="24" viewBox="0 0 25 24" fill="none" xmlns="http://www.w3.org/2000/svg">
<path d="M12.375 4C16.7933 4 20.375 7.58172 20.375 12C20.375 16.4183 16.7933 20 12.375 20C7.95672 20 4.375 16.4183 4.375 12C4.375 7.58172 7.95672 4 12.375 4ZM12.375 6C9.06129 6 6.375 8.68629 6.375 12C6.375 15.3137 9.06129 18 12.375 18C15.6887 18 18.375 15.3137 18.375 12C18.375 8.68629 15.6887 6 12.375 6ZM13.7891 13.4141L8.13281 16.2422L10.9609 10.5859L16.6172 7.75781L13.7891 13.4141Z" fill="#60707A"/>
</svg>
