<svg width="25" height="24" viewBox="0 0 25 24" fill="none" xmlns="http://www.w3.org/2000/svg">
<path d="M12.125 4C14.3341 4 16.125 5.79086 16.125 8C16.125 9.38172 15.4237 10.5988 14.3584 11.3174C17.6896 12.2841 20.125 15.357 20.125 19H4.125C4.125 15.3574 6.55988 12.2844 9.89062 11.3174C8.82569 10.5987 8.125 9.38143 8.125 8C8.125 5.79086 9.91586 4 12.125 4ZM12.125 13C9.51272 13 7.29157 14.6698 6.46777 17H17.7822C16.9584 14.6698 14.7373 13 12.125 13ZM12.125 6C11.0204 6 10.125 6.89543 10.125 8C10.125 9.10457 11.0204 10 12.125 10C13.2296 10 14.125 9.10457 14.125 8C14.125 6.89543 13.2296 6 12.125 6Z" fill="#60707A"/>
</svg>
